/* XPM */
static char * sven_xpm[] = {
"42 42 798 2",
"  	c None",
". 	c #010100",
"+ 	c #18130C",
"@ 	c #11110D",
"# 	c #16120B",
"$ 	c #020201",
"% 	c #030302",
"& 	c #040403",
"* 	c #13130E",
"= 	c #414130",
"- 	c #10100C",
"; 	c #000000",
"> 	c #372E25",
", 	c #625848",
"' 	c #686252",
") 	c #2A231C",
"! 	c #5C513E",
"~ 	c #8A8460",
"{ 	c #59573C",
"] 	c #2E2A19",
"^ 	c #251C12",
"/ 	c #463B2F",
"( 	c #0F0D0A",
"_ 	c #5A523E",
": 	c #908462",
"< 	c #7F7556",
"[ 	c #0C0803",
"} 	c #080400",
"| 	c #453E31",
"1 	c #887E63",
"2 	c #968E66",
"3 	c #797455",
"4 	c #625941",
"5 	c #635840",
"6 	c #7B7054",
"7 	c #242616",
"8 	c #11130C",
"9 	c #0A0A0A",
"0 	c #15190A",
"a 	c #272418",
"b 	c #777151",
"c 	c #9B9165",
"d 	c #877A51",
"e 	c #3E341F",
"f 	c #3C3425",
"g 	c #625B47",
"h 	c #868062",
"i 	c #817B55",
"j 	c #847C5D",
"k 	c #7F7657",
"l 	c #877C58",
"m 	c #988E64",
"n 	c #3E4027",
"o 	c #353525",
"p 	c #393629",
"q 	c #2C291E",
"r 	c #060604",
"s 	c #121609",
"t 	c #090807",
"u 	c #1F1D14",
"v 	c #79704C",
"w 	c #898159",
"x 	c #8E865E",
"y 	c #93895F",
"z 	c #9C8C5D",
"A 	c #9C9273",
"B 	c #767155",
"C 	c #545334",
"D 	c #5F5E3F",
"E 	c #827C56",
"F 	c #6B6744",
"G 	c #67613E",
"H 	c #95875A",
"I 	c #514F38",
"J 	c #7A7556",
"K 	c #9E966D",
"L 	c #87805D",
"M 	c #15140E",
"N 	c #0F0E0B",
"O 	c #5F5947",
"P 	c #2A2820",
"Q 	c #3C392A",
"R 	c #87805C",
"S 	c #8D855C",
"T 	c #74704C",
"U 	c #7A7250",
"V 	c #8A7C59",
"W 	c #786945",
"X 	c #6E6848",
"Y 	c #5D5C3D",
"Z 	c #4D4C31",
"` 	c #464633",
" .	c #605A41",
"..	c #534F39",
"+.	c #4F4C36",
"@.	c #6A6144",
"#.	c #5D5B3E",
"$.	c #847F5B",
"%.	c #837B57",
"&.	c #4B4329",
"*.	c #2C2511",
"=.	c #100D05",
"-.	c #211B13",
";.	c #7A6F55",
">.	c #554E3A",
",.	c #5B553F",
"'.	c #8B8364",
").	c #867E5F",
"!.	c #655C3C",
"~.	c #5E5332",
"{.	c #665839",
"].	c #5D5236",
"^.	c #585136",
"/.	c #534E33",
"(.	c #4E4A30",
"_.	c #4A4930",
":.	c #534D35",
"<.	c #4F4B33",
"[.	c #4E4B32",
"}.	c #564E36",
"|.	c #4F4D36",
"1.	c #736B47",
"2.	c #7E734E",
"3.	c #675F46",
"4.	c #716948",
"5.	c #60573F",
"6.	c #362F22",
"7.	c #231E14",
"8.	c #867855",
"9.	c #827755",
"0.	c #736A4D",
"a.	c #6E6349",
"b.	c #594F30",
"c.	c #4F4526",
"d.	c #4F4628",
"e.	c #504A30",
"f.	c #504C30",
"g.	c #504F30",
"h.	c #504B30",
"i.	c #504D30",
"j.	c #4E4B2E",
"k.	c #4A422A",
"l.	c #423E2A",
"m.	c #5C5434",
"n.	c #6E633F",
"o.	c #72684C",
"p.	c #908761",
"q.	c #746A4F",
"r.	c #534936",
"s.	c #3E3524",
"t.	c #443E2D",
"u.	c #15130E",
"v.	c #13110B",
"w.	c #8B7D54",
"x.	c #998E63",
"y.	c #7A6F4A",
"z.	c #514222",
"A.	c #524B2C",
"B.	c #514F30",
"C.	c #4F4E2F",
"D.	c #494529",
"E.	c #3D361E",
"F.	c #423B23",
"G.	c #49452A",
"H.	c #4D4729",
"I.	c #554726",
"J.	c #7C714C",
"K.	c #423E2D",
"L.	c #4C4535",
"M.	c #938462",
"N.	c #A6986F",
"O.	c #353023",
"P.	c #020100",
"Q.	c #110F0B",
"R.	c #807254",
"S.	c #6D5E3D",
"T.	c #5A4C2B",
"U.	c #5D4D2E",
"V.	c #5D4E2F",
"W.	c #574F30",
"X.	c #484428",
"Y.	c #39331D",
"Z.	c #282615",
"`.	c #524B34",
" +	c #44402C",
".+	c #3E3821",
"++	c #564727",
"@+	c #867757",
"#+	c #857759",
"$+	c #867859",
"%+	c #7B6E52",
"&+	c #1F1C15",
"*+	c #100B05",
"=+	c #0D0700",
"-+	c #7E7154",
";+	c #665D3D",
">+	c #3D3720",
",+	c #221C11",
"'+	c #292816",
")+	c #383B20",
"!+	c #4F4E30",
"~+	c #554F30",
"{+	c #574E30",
"]+	c #504E30",
"^+	c #474227",
"/+	c #3F371E",
"(+	c #3E341B",
"_+	c #403720",
":+	c #373320",
"<+	c #3B3823",
"[+	c #52482D",
"}+	c #64593E",
"|+	c #66593A",
"1+	c #776847",
"2+	c #857758",
"3+	c #575037",
"4+	c #1D1A10",
"5+	c #050300",
"6+	c #0C0B08",
"7+	c #565138",
"8+	c #4A492D",
"9+	c #3E402F",
"0+	c #474747",
"a+	c #646264",
"b+	c #676467",
"c+	c #706F6C",
"d+	c #707061",
"e+	c #4A472B",
"f+	c #454329",
"g+	c #3E3923",
"h+	c #3D3523",
"i+	c #4A4836",
"j+	c #4A4B36",
"k+	c #444431",
"l+	c #3F3B27",
"m+	c #3C3319",
"n+	c #3C3117",
"o+	c #3C341C",
"p+	c #3A331E",
"q+	c #3A3220",
"r+	c #524833",
"s+	c #52482C",
"t+	c #5F5333",
"u+	c #6E6142",
"v+	c #4F4931",
"w+	c #211E14",
"x+	c #060702",
"y+	c #1F2410",
"z+	c #393E2A",
"A+	c #707368",
"B+	c #BDBBBC",
"C+	c #F9F3F9",
"D+	c #FFF8FF",
"E+	c #DCD5D5",
"F+	c #605842",
"G+	c #363423",
"H+	c #28271E",
"I+	c #373732",
"J+	c #60645F",
"K+	c #54564E",
"L+	c #393827",
"M+	c #473B21",
"N+	c #4E4022",
"O+	c #3F321A",
"P+	c #241B10",
"Q+	c #554937",
"R+	c #544F34",
"S+	c #50492A",
"T+	c #43371C",
"U+	c #0D0C07",
"V+	c #050500",
"W+	c #121204",
"X+	c #2B2B1A",
"Y+	c #AAA7A4",
"Z+	c #F3EDF2",
"`+	c #F9F2F2",
" @	c #E4DCC5",
".@	c #3E3C35",
"+@	c #716D62",
"@@	c #E4DDCE",
"#@	c #F1EBF1",
"$@	c #DAD6D5",
"%@	c #9D9D8C",
"&@	c #453E33",
"*@	c #4C3F28",
"=@	c #5C4D33",
"-@	c #584B39",
";@	c #524F32",
">@	c #493D1F",
",@	c #2F2E1D",
"'@	c #0F0F09",
")@	c #060503",
"!@	c #8B8254",
"~@	c #A6985D",
"{@	c #A6975C",
"]@	c #A69962",
"^@	c #A5915A",
"/@	c #7E724B",
"(@	c #655E42",
"_@	c #685E43",
":@	c #67614B",
"<@	c #C9C2BF",
"[@	c #858285",
"}@	c #9F9A9F",
"|@	c #D8D2D6",
"1@	c #4F4C45",
"2@	c #8E8D83",
"3@	c #D0CCC6",
"4@	c #FCF4F4",
"5@	c #F7F1F6",
"6@	c #E4DFDE",
"7@	c #C5BFC0",
"8@	c #5F5954",
"9@	c #352E20",
"0@	c #5D543D",
"a@	c #524B32",
"b@	c #544D32",
"c@	c #594B35",
"d@	c #524C35",
"e@	c #191710",
"f@	c #726B45",
"g@	c #BFAC6A",
"h@	c #EDD482",
"i@	c #E8D387",
"j@	c #E2C87B",
"k@	c #C6B472",
"l@	c #95895B",
"m@	c #685C48",
"n@	c #AEA69B",
"o@	c #E6DFE0",
"p@	c #817F7C",
"q@	c #8B8983",
"r@	c #B2B0AC",
"s@	c #212421",
"t@	c #BEBCB7",
"u@	c #FBF6F7",
"v@	c #FAF6F5",
"w@	c #8A8581",
"x@	c #3D382B",
"y@	c #443C2A",
"z@	c #4E492F",
"A@	c #544E34",
"B@	c #49412F",
"C@	c #372F24",
"D@	c #423D29",
"E@	c #1E1C13",
"F@	c #0A0907",
"G@	c #867549",
"H@	c #E7CB7E",
"I@	c #DBC47B",
"J@	c #D1BA71",
"K@	c #D7C376",
"L@	c #968954",
"M@	c #312B25",
"N@	c #CCC5C4",
"O@	c #EAE3E6",
"P@	c #EDE6E9",
"Q@	c #EBE5E7",
"R@	c #B9B8AD",
"S@	c #A9A999",
"T@	c #98998A",
"U@	c #434841",
"V@	c #CDC9CD",
"W@	c #F2ECEF",
"X@	c #D3D0CA",
"Y@	c #D1CFC8",
"Z@	c #BAB3A8",
"`@	c #635D4C",
" #	c #221C13",
".#	c #474429",
"+#	c #544B34",
"@#	c #3B3224",
"##	c #120F08",
"$#	c #19180C",
"%#	c #2F2B20",
"&#	c #2E271E",
"*#	c #8F7F53",
"=#	c #DAC37A",
"-#	c #CFB86F",
";#	c #867748",
">#	c #100F0C",
",#	c #746C58",
"'#	c #A1998B",
")#	c #ABA79B",
"!#	c #A2A293",
"~#	c #ABAB9B",
"{#	c #B0B09F",
"]#	c #98988A",
"^#	c #434341",
"/#	c #CDC8CD",
"(#	c #FDF6FD",
"_#	c #C2C1B5",
":#	c #54544C",
"<#	c #535153",
"[#	c #CFCCC5",
"}#	c #76766B",
"|#	c #161511",
"1#	c #3B341E",
"2#	c #413921",
"3#	c #463B20",
"4#	c #40341A",
"5#	c #221F14",
"6#	c #998A5B",
"7#	c #2A2619",
"8#	c #0C0A08",
"9#	c #6C5F3D",
"0#	c #C5B06E",
"a#	c #D5C277",
"b#	c #8C7A4A",
"c#	c #53482B",
"d#	c #342E1B",
"e#	c #3A3420",
"f#	c #817957",
"g#	c #8C8462",
"h#	c #8B8462",
"i#	c #88825E",
"j#	c #888256",
"k#	c #8B8158",
"l#	c #665E44",
"m#	c #3B382E",
"n#	c #40453E",
"o#	c #FFF8FE",
"p#	c #EFE9EB",
"q#	c #D1CCCF",
"r#	c #D1CBD1",
"s#	c #D0CDC6",
"t#	c #999481",
"u#	c #786C4F",
"v#	c #B8AA6D",
"w#	c #C2B06B",
"x#	c #C3AF67",
"y#	c #C2AD65",
"z#	c #B3A15F",
"A#	c #B19F5E",
"B#	c #B09F5E",
"C#	c #BAA866",
"D#	c #DAC982",
"E#	c #393522",
"F#	c #3E3622",
"G#	c #5F5535",
"H#	c #726840",
"I#	c #837147",
"J#	c #7E7148",
"K#	c #83784B",
"L#	c #9C8C54",
"M#	c #BBA86C",
"N#	c #BAA76A",
"O#	c #B7A467",
"P#	c #B7A466",
"Q#	c #B7A461",
"R#	c #B29E60",
"S#	c #968451",
"T#	c #726641",
"U#	c #616047",
"V#	c #7D7A71",
"W#	c #9B948F",
"X#	c #B9B0AC",
"Y#	c #D8D1D0",
"Z#	c #F6EFF5",
"`#	c #9C9997",
" $	c #7A735B",
".$	c #BBA871",
"+$	c #D4C37D",
"@$	c #DDCA7B",
"#$	c #E3CE7B",
"$$	c #E8CF7E",
"%$	c #E8CC79",
"&$	c #E7CC78",
"*$	c #E7CD7B",
"=$	c #E9D181",
"-$	c #EFD787",
";$	c #3F3823",
">$	c #0F0E08",
",$	c #3C361F",
"'$	c #A8935B",
")$	c #DAC57D",
"!$	c #EBD787",
"~$	c #EBD280",
"{$	c #EBCF80",
"]$	c #EBCE80",
"^$	c #E3CA7F",
"/$	c #DFC77D",
"($	c #D1B973",
"_$	c #9B8C58",
":$	c #5E5530",
"<$	c #615535",
"[$	c #837658",
"}$	c #A49B88",
"|$	c #D1C9C4",
"1$	c #F0E9EC",
"2$	c #FEF8FE",
"3$	c #F8F4F8",
"4$	c #D5D1D4",
"5$	c #6E6962",
"6$	c #645938",
"7$	c #C6B16F",
"8$	c #C8B46F",
"9$	c #CAB96D",
"0$	c #D4C072",
"a$	c #DFC57A",
"b$	c #DFC274",
"c$	c #DFC579",
"d$	c #D5BE78",
"e$	c #B29B5F",
"f$	c #39321F",
"g$	c #3F3A20",
"h$	c #C3B263",
"i$	c #E7CA7B",
"j$	c #E5CB7F",
"k$	c #DFC87F",
"l$	c #DFC478",
"m$	c #DFC070",
"n$	c #EBCC7C",
"o$	c #D7C070",
"p$	c #AF9F59",
"q$	c #817142",
"r$	c #82785A",
"s$	c #C4BCB4",
"t$	c #F6F3F5",
"u$	c #DFE6DE",
"v$	c #5F655C",
"w$	c #847953",
"x$	c #9E8A55",
"y$	c #897745",
"z$	c #CFB368",
"A$	c #C9B465",
"B$	c #CCB667",
"C$	c #DEC172",
"D$	c #DFC77E",
"E$	c #E0C87F",
"F$	c #B09D64",
"G$	c #050503",
"H$	c #726A44",
"I$	c #C5B573",
"J$	c #DAC379",
"K$	c #E1C97E",
"L$	c #E0C97F",
"M$	c #DFC67C",
"N$	c #E2C97E",
"O$	c #DEC67C",
"P$	c #D5BF77",
"Q$	c #CAB571",
"R$	c #C1AD6D",
"S$	c #8F855C",
"T$	c #605D4B",
"U$	c #514C41",
"V$	c #8B7C55",
"W$	c #BCA465",
"X$	c #A99054",
"Y$	c #564826",
"Z$	c #403D24",
"`$	c #918652",
" %	c #C3B16D",
".%	c #C9B670",
"+%	c #D2C173",
"@%	c #DBC273",
"#%	c #E5CA79",
"$%	c #BAA764",
"%%	c #BAAA6D",
"&%	c #E4CF84",
"*%	c #D9C279",
"=%	c #B09E5F",
"-%	c #8A7C49",
";%	c #837346",
">%	c #AF9C62",
",%	c #C5B06D",
"'%	c #B39E60",
")%	c #7A683E",
"!%	c #3C351D",
"~%	c #4A4329",
"{%	c #8C7F4F",
"]%	c #DAC678",
"^%	c #D8C478",
"/%	c #CBB26C",
"(%	c #9D8953",
"_%	c #615734",
":%	c #BCAC6D",
"<%	c #E7D084",
"[%	c #D1BB72",
"}%	c #CAB56F",
"|%	c #C2B16F",
"1%	c #C0B06F",
"2%	c #B8A66A",
"3%	c #A5915C",
"4%	c #867546",
"5%	c #3E351E",
"6%	c #52482A",
"7%	c #A49358",
"8%	c #9B8B58",
"9%	c #837349",
"0%	c #4D432A",
"a%	c #15120B",
"b%	c #BEA666",
"c%	c #E6CB7F",
"d%	c #D6C17A",
"e%	c #C0B06E",
"f%	c #B4A469",
"g%	c #A79864",
"h%	c #DDCC83",
"i%	c #8B7B4A",
"j%	c #352C17",
"k%	c #2F281F",
"l%	c #584C32",
"m%	c #BBA15E",
"n%	c #D9C078",
"o%	c #DDC57A",
"p%	c #D8BC6F",
"q%	c #C4B265",
"r%	c #C0B06A",
"s%	c #B5A769",
"t%	c #9B905B",
"u%	c #7C6D44",
"v%	c #AA975E",
"w%	c #766A42",
"x%	c #393220",
"y%	c #675B37",
"z%	c #E9CE7A",
"A%	c #DCC67A",
"B%	c #D4BF6F",
"C%	c #C4B263",
"D%	c #C6B569",
"E%	c #A3975C",
"F%	c #66603C",
"G%	c #9A8C53",
"H%	c #746840",
"I%	c #473F28",
"J%	c #3A3520",
"K%	c #6A6039",
"L%	c #EFD780",
"M%	c #E3CB7F",
"N%	c #DCC57C",
"O%	c #D5C076",
"P%	c #CABA6F",
"Q%	c #C6B467",
"R%	c #C1B068",
"S%	c #908651",
"T%	c #4E4C2F",
"U%	c #C8B86C",
"V%	c #4E482A",
"W%	c #30301F",
"X%	c #625C38",
"Y%	c #E2CB7F",
"Z%	c #DEC77E",
"`%	c #DAC27B",
" &	c #DBC57D",
".&	c #D5BE75",
"+&	c #CAB56E",
"@&	c #C0B06D",
"#&	c #C6B16D",
"$&	c #AB9A62",
"%&	c #83794E",
"&&	c #6B663D",
"*&	c #C5B26A",
"=&	c #524A2C",
"-&	c #D4BD78",
";&	c #B59E64",
">&	c #C1AE6E",
",&	c #CAB670",
"'&	c #CAB56B",
")&	c #BCAC62",
"!&	c #9D8D61",
"~&	c #7B6F4F",
"{&	c #82774B",
"]&	c #A09351",
"^&	c #2E2A18",
"/&	c #E1C97F",
"(&	c #E9CD80",
"_&	c #D3BD70",
":&	c #D5BD70",
"<&	c #BDA665",
"[&	c #605838",
"}&	c #BBA96B",
"|&	c #B09C63",
"1&	c #897A4C",
"2&	c #73693F",
"3&	c #473D27",
"4&	c #2D271B",
"5&	c #322C1B",
"6&	c #4A4121",
"7&	c #675B39",
"8&	c #E9D180",
"9&	c #E1CA7F",
"0&	c #DFC67B",
"a&	c #E2C87C",
"b&	c #DEC57B",
"c&	c #C3AD6D",
"d&	c #BBA763",
"e&	c #C9B168",
"f&	c #B19B5C",
"g&	c #464028",
"h&	c #B4A262",
"i&	c #877748",
"j&	c #413723",
"k&	c #2E291B",
"l&	c #171107",
"m&	c #060300",
"n&	c #0F0800",
"o&	c #584E35",
"p&	c #BBA76A",
"q&	c #D5BF78",
"r&	c #DDC57C",
"s&	c #E2C577",
"t&	c #E8C979",
"u&	c #D4BB74",
"v&	c #766E48",
"w&	c #908051",
"x&	c #B5A062",
"y&	c #B8A362",
"z&	c #78673E",
"A&	c #9B8C4E",
"B&	c #594F29",
"C&	c #0A0600",
"D&	c #15120C",
"E&	c #A7955A",
"F&	c #D0B970",
"G&	c #D0B870",
"H&	c #D1B970",
"I&	c #DDBF71",
"J&	c #EDCF80",
"K&	c #EECF7F",
"L&	c #C7AF6C",
"M&	c #3A3925",
"N&	c #383723",
"O&	c #857B4A",
"P&	c #D6C373",
"Q&	c #E1CA78",
"R&	c #B49E60",
"S&	c #D3BC74",
"T&	c #C5B26C",
"U&	c #C5B265",
"V&	c #CAB668",
"W&	c #CDB96D",
"X&	c #E4CC7F",
"Y&	c #D5C075",
"Z&	c #746A42",
"`&	c #998B5C",
" *	c #A89960",
".*	c #93854D",
"+*	c #5D5336",
"@*	c #9D8A56",
"#*	c #BCAA69",
"$*	c #A5975D",
"%*	c #4A4327",
"&*	c #72633D",
"**	c #A08E59",
"=*	c #BFAB68",
"-*	c #CEB667",
";*	c #C8B467",
">*	c #C3B167",
",*	c #CAB56A",
"'*	c #D6BF76",
")*	c #D8C178",
"!*	c #D9C375",
"~*	c #C4B267",
"{*	c #5E5939",
"]*	c #8C8357",
"^*	c #A2965B",
"/*	c #A09251",
"(*	c #A9965C",
"_*	c #8D7B4C",
":*	c #766941",
"<*	c #585133",
"[*	c #53482E",
"}*	c #95814F",
"|*	c #AE9658",
"1*	c #A59257",
"2*	c #9C8D57",
"3*	c #A8995C",
"4*	c #C8B365",
"5*	c #CEB76E",
"6*	c #CBB66A",
"7*	c #BCAB61",
"8*	c #928757",
"9*	c #A79A62",
"0*	c #A6985B",
"a*	c #9F9051",
"b*	c #BBA864",
"c*	c #3A351F",
"d*	c #040402",
"e*	c #050402",
"f*	c #050403",
"g*	c #52472A",
"h*	c #DCBF70",
"i*	c #D1B96F",
"j*	c #D5BB6F",
"k*	c #D9BD6F",
"l*	c #C1B06E",
"m*	c #948A59",
"n*	c #49442D",
"o*	c #282214",
"p*	c #3A321D",
"q*	c #37301D",
"r*	c #36301D",
"s*	c #38311D",
"t*	c #39321D",
"u*	c #332E1D",
"v*	c #272417",
"w*	c #1C1A11",
"                                              . +                                   ",
"                                              @ #                                   ",
"                                $ % &     $ * = -     $                             ",
"                              ; > , ' & ; ) ! ~ { ] ^ / (                           ",
"                              ; _ : < [ } | 1 2 3 4 5 6 7 8 9 ; ; 0                 ",
"                              a b c d e f g h i j k l m n o p q r s                 ",
"                      t     u v w x y z A B C D E F G H I J K L M                   ",
"                    N O P Q R S T U V W X Y Z `  ...+.@.#.$.%.&.*.=.; ;             ",
"                    -.;.>.,.'.).!.~.{.].^./.(._.:.<.[.}.|.1.2.3.4.5.6.} . ;         ",
"                    7.8.9.0.a.a.b.c.d.e.e.e.f.g.h.i.j.k.l.m.n.o.p.q.r.s.t.u.;       ",
"                    v.w.x.y.z.z.A.B.g.g.g.g.g.g.g.C.D.E.F.G.H.I.J.K.L.M.N.O.P.      ",
"                    Q.R.S.T.U.U.V.W.g.g.g.g.g.g.g.X.Y.Z.`. +.+++@+#+$+%+&+*+=+      ",
"                    Q.-+;+>+,+,+,+'+)+!+g.~+{+h.]+^+/+(+_+:+<+[+}+|+1+2+3+4+5+      ",
"                    6+7+8+9+0+a+b+c+d+e+f+g+h+i+j+k+l+m+n+o+p+q+r+s+t+u+v+w+        ",
"                    x+y+z+A+B+C+D+D+E+F+G+H+I+J+J+J+K+L+M+N+O+P+Q+R+S+T+U+          ",
"      ; ; ; ; ; ; V+W+X+Y+Z+C+D+D+D+`+ @.@+@@@#@#@#@$@%@&@*@=@-@;@g.S+>@,@'@;       ",
"    )@!@~@{@]@^@/@(@_@:@<@D+D+D+[@}@|@1@2@3@4@D+D+D+5@6@7@8@9@0@a@i.b@c@d@e@;       ",
"    )@f@g@h@i@j@k@l@m@n@o@D+D+D+p@q@r@s@t@u@D+D+D+u@v@D+D+w@x@y@z@A@B@C@D@E@        ",
"      F@G@H@I@J@K@L@M@N@O@P@Q@Q@R@S@T@U@V@D+D+D+W@X@Y@D+D+Z@`@ #.#+#@###$#      %#  ",
"      &#*#=#-#-#-#;#>#,#'#)#!#!#~#{#]#^#/#D+D+(#_#:#<#D+D+[#}#|#1#2#3#4#)@; ; 5#6#7#",
"      8#9#0#a#b#c#d#e#f#g#h#i#j#k#l#m#n#V@D+D+o#p#q#r#D+D+s#t#u#v#w#x#y#z#A#B#C#D#E#",
"        F#G#H#I#J#K#L#M#N#O#P#Q#R#S#T#U#V#W#X#Y#Z#D+D+D+D+`# $.$+$@$#$$$%$&$*$=$-$;$",
"        ; >$,$'$)$!$~${$]$]$]$]$^$/$($_$:$<$[$}$|$1$2$3$4$5$6$7$8$9$0$a$b$b$c$d$e$f$",
"        )@g$h$i$j$k$k$k$k$k$k$k$k$l$m$m$n$o$p$q$r$s$t$u$v$w$x$y$z$A$B$C$D$k$E$F$G$  ",
"      ; H$I$J$K$L$k$k$k$k$k$k$k$k$D$M$M$N$O$P$Q$R$S$T$U$V$W$X$Y$Z$`$ %.%+%@%#%$%)@  ",
"    )@H$%%&%k$k$k$k$k$k$k$k$k$k$k$k$k$k$k$k$k$k$*%=%-%;%>%,%'%)%!%~%{%]%^%/%(%_%    ",
"    )@:%<%k$k$k$k$k$k$k$k$k$k$k$k$k$k$k$k$k$k$k$k$*%[%}%|%1%2%3%4%5%6%7%8%9%0%;     ",
"    a%b%c%k$k$k$k$k$k$k$k$k$k$k$k$k$k$k$k$k$k$k$k$k$d%|%e%1%f%g%h%i%j%; ; ; ;       ",
"k%l%m%n%L$k$k$k$k$k$k$k$k$k$k$k$k$k$k$k$k$k$k$k$k$k$o%p%q%r%s%t%u%v%w%;             ",
"x%y%z%K$k$k$k$k$k$k$k$k$k$k$k$k$k$k$k$k$k$k$k$k$k$k$A%B%C%D%E%F%G%H%I%              ",
"J%K%L%M%k$k$k$k$k$k$k$k$k$k$k$k$k$k$k$k$k$k$k$k$k$N%O%P%Q%R%S%T%U%V%;               ",
"W%X%L%Y%k$k$k$k$k$k$k$k$k$k$k$k$k$k$k$k$k$k$Z%`% &.&+&@&#&$&%&&&*&=&;               ",
"W%X%L%Y%k$k$k$k$k$k$k$k$k$k$k$k$k$k$k$k$k$k$-&;&>&,&'&)&!&~&{&]&^&                  ",
"J%K%L%M%k$k$k$k$k$k$k$k$k$k$k$k$k$k$/&(&_&:&<&[&}&|&1&2&3&4&5&6&                    ",
"x%7&8&9&k$k$k$k$k$k$k$k$k$k$k$k$0&a&b&c&d&e&f&g&h&i&j&k&l&m&5+n&                    ",
"k%o&p&q&N%N%r&M$D$k$k$k$k$k$k$/&s&t&u&v&w&x&y&z&A&B&C&;                             ",
"    D&E&F&G&H&I&c$k$k$k$k$k$/&J&K&K&L&M&N&O&P&Q&c#                                  ",
"    G$R&S&T&U&A$V&W&.&Z%k$X&Y&Z&`& *.*+*@*#*$*%*                                    ",
"    )@&***=*-*;*>*>*,*'*)*!*~*{*]*^*/*(*_*:*<*;                                     ",
"      ; [*}*|*1*2*3*4*5*-#6*7*8*9*0*a*b*c*; ;                                       ",
"        d*e*G$f*f*g*h*i*-#j*k*l*m*n*e*)@                                            ",
"                  o*p*q*r*s*t*u*v*w*                                                "};
